<mxfile host="app.diagrams.net" modified="2020-11-23T23:38:38.062Z" agent="5.0 (X11)" etag="kEZM-84pQw0PaG5HN4Z8" version="13.10.1" type="github">
  <diagram id="KqkZjkOeE_sg2YT3RqiJ" name="Page-1">
    <mxGraphModel dx="1413" dy="798" grid="1" gridSize="10" guides="1" tooltips="1" connect="1" arrows="1" fold="1" page="1" pageScale="1" pageWidth="1654" pageHeight="1169" math="0" shadow="0">
      <root>
        <mxCell id="0" />
        <mxCell id="1" parent="0" />
        <mxCell id="RCqLNb2kKSwG4njkKq9Q-14" style="edgeStyle=none;curved=1;orthogonalLoop=1;jettySize=auto;html=1;exitX=0.5;exitY=1;exitDx=0;exitDy=0;entryX=0.5;entryY=0;entryDx=0;entryDy=0;dashed=1;strokeWidth=2;" edge="1" parent="1" source="RCqLNb2kKSwG4njkKq9Q-1" target="RCqLNb2kKSwG4njkKq9Q-3">
          <mxGeometry relative="1" as="geometry" />
        </mxCell>
        <mxCell id="RCqLNb2kKSwG4njkKq9Q-15" style="edgeStyle=orthogonalEdgeStyle;orthogonalLoop=1;jettySize=auto;html=1;exitX=1;exitY=0.5;exitDx=0;exitDy=0;dashed=1;entryX=0.5;entryY=0;entryDx=0;entryDy=0;strokeWidth=2;" edge="1" parent="1" source="RCqLNb2kKSwG4njkKq9Q-1" target="RCqLNb2kKSwG4njkKq9Q-5">
          <mxGeometry relative="1" as="geometry">
            <mxPoint x="1200" y="280" as="targetPoint" />
          </mxGeometry>
        </mxCell>
        <mxCell id="RCqLNb2kKSwG4njkKq9Q-16" style="edgeStyle=orthogonalEdgeStyle;orthogonalLoop=1;jettySize=auto;html=1;exitX=0;exitY=0.5;exitDx=0;exitDy=0;entryX=0.5;entryY=0;entryDx=0;entryDy=0;dashed=1;jumpStyle=arc;strokeWidth=2;" edge="1" parent="1" source="RCqLNb2kKSwG4njkKq9Q-1" target="RCqLNb2kKSwG4njkKq9Q-7">
          <mxGeometry relative="1" as="geometry" />
        </mxCell>
        <mxCell id="RCqLNb2kKSwG4njkKq9Q-1" value="&lt;font style=&quot;font-size: 16px&quot;&gt;&lt;b&gt;MAC&lt;/b&gt;&lt;/font&gt;" style="rounded=0;whiteSpace=wrap;html=1;strokeWidth=3;fillColor=#fff2cc;" vertex="1" parent="1">
          <mxGeometry x="844" y="120" width="120" height="60" as="geometry" />
        </mxCell>
        <mxCell id="RCqLNb2kKSwG4njkKq9Q-37" style="edgeStyle=orthogonalEdgeStyle;orthogonalLoop=1;jettySize=auto;html=1;exitX=0.5;exitY=1;exitDx=0;exitDy=0;entryX=0.5;entryY=0;entryDx=0;entryDy=0;strokeWidth=2;dashed=1;" edge="1" parent="1" source="RCqLNb2kKSwG4njkKq9Q-2" target="RCqLNb2kKSwG4njkKq9Q-26">
          <mxGeometry relative="1" as="geometry" />
        </mxCell>
        <mxCell id="RCqLNb2kKSwG4njkKq9Q-2" value="&lt;font style=&quot;font-size: 16px&quot;&gt;&lt;b&gt;MAA&lt;/b&gt;&lt;/font&gt;" style="rounded=0;whiteSpace=wrap;html=1;strokeWidth=3;fillColor=#fff2cc;" vertex="1" parent="1">
          <mxGeometry x="540" y="420" width="120" height="60" as="geometry" />
        </mxCell>
        <mxCell id="RCqLNb2kKSwG4njkKq9Q-3" value="" style="ellipse;whiteSpace=wrap;html=1;aspect=fixed;strokeWidth=2;fillColor=#fff2cc;" vertex="1" parent="1">
          <mxGeometry x="889" y="290" width="30" height="30" as="geometry" />
        </mxCell>
        <mxCell id="RCqLNb2kKSwG4njkKq9Q-60" style="edgeStyle=orthogonalEdgeStyle;orthogonalLoop=1;jettySize=auto;html=1;entryX=0.5;entryY=0;entryDx=0;entryDy=0;endArrow=none;endFill=0;strokeWidth=2;" edge="1" parent="1" source="RCqLNb2kKSwG4njkKq9Q-4" target="RCqLNb2kKSwG4njkKq9Q-17">
          <mxGeometry relative="1" as="geometry" />
        </mxCell>
        <mxCell id="RCqLNb2kKSwG4njkKq9Q-4" value="&lt;font style=&quot;font-size: 16px&quot;&gt;&lt;b&gt;IAP&lt;/b&gt;&lt;/font&gt;" style="text;html=1;strokeColor=none;fillColor=none;align=center;verticalAlign=middle;whiteSpace=wrap;rounded=0;" vertex="1" parent="1">
          <mxGeometry x="884" y="330" width="40" height="20" as="geometry" />
        </mxCell>
        <mxCell id="RCqLNb2kKSwG4njkKq9Q-5" value="" style="ellipse;whiteSpace=wrap;html=1;aspect=fixed;strokeWidth=2;fillColor=#fff2cc;" vertex="1" parent="1">
          <mxGeometry x="1185" y="290" width="30" height="30" as="geometry" />
        </mxCell>
        <mxCell id="RCqLNb2kKSwG4njkKq9Q-6" value="&lt;font style=&quot;font-size: 16px&quot;&gt;&lt;b&gt;IAPR&lt;/b&gt;&lt;/font&gt;" style="text;html=1;strokeColor=none;fillColor=none;align=center;verticalAlign=middle;whiteSpace=wrap;rounded=0;" vertex="1" parent="1">
          <mxGeometry x="1180" y="330" width="40" height="20" as="geometry" />
        </mxCell>
        <mxCell id="RCqLNb2kKSwG4njkKq9Q-7" value="" style="ellipse;whiteSpace=wrap;html=1;aspect=fixed;strokeWidth=2;fillColor=#fff2cc;" vertex="1" parent="1">
          <mxGeometry x="585" y="290" width="30" height="30" as="geometry" />
        </mxCell>
        <mxCell id="RCqLNb2kKSwG4njkKq9Q-50" style="edgeStyle=orthogonalEdgeStyle;orthogonalLoop=1;jettySize=auto;html=1;exitX=0.5;exitY=1;exitDx=0;exitDy=0;entryX=0.5;entryY=0;entryDx=0;entryDy=0;endArrow=none;endFill=0;strokeWidth=2;" edge="1" parent="1" source="RCqLNb2kKSwG4njkKq9Q-8" target="RCqLNb2kKSwG4njkKq9Q-2">
          <mxGeometry relative="1" as="geometry" />
        </mxCell>
        <mxCell id="RCqLNb2kKSwG4njkKq9Q-8" value="&lt;font style=&quot;font-size: 16px&quot;&gt;&lt;b&gt;IAA&lt;/b&gt;&lt;/font&gt;" style="text;html=1;strokeColor=none;fillColor=none;align=center;verticalAlign=middle;whiteSpace=wrap;rounded=0;" vertex="1" parent="1">
          <mxGeometry x="580" y="330" width="40" height="20" as="geometry" />
        </mxCell>
        <mxCell id="RCqLNb2kKSwG4njkKq9Q-38" style="edgeStyle=orthogonalEdgeStyle;orthogonalLoop=1;jettySize=auto;html=1;exitX=0.5;exitY=1;exitDx=0;exitDy=0;entryX=0.5;entryY=0;entryDx=0;entryDy=0;dashed=1;strokeWidth=2;" edge="1" parent="1" source="RCqLNb2kKSwG4njkKq9Q-17" target="RCqLNb2kKSwG4njkKq9Q-30">
          <mxGeometry relative="1" as="geometry" />
        </mxCell>
        <mxCell id="RCqLNb2kKSwG4njkKq9Q-17" value="&lt;font style=&quot;font-size: 16px&quot;&gt;&lt;b&gt;MAP&lt;/b&gt;&lt;/font&gt;" style="rounded=0;whiteSpace=wrap;html=1;strokeWidth=3;fillColor=#fff2cc;" vertex="1" parent="1">
          <mxGeometry x="844" y="420" width="120" height="60" as="geometry" />
        </mxCell>
        <mxCell id="RCqLNb2kKSwG4njkKq9Q-39" style="edgeStyle=orthogonalEdgeStyle;orthogonalLoop=1;jettySize=auto;html=1;exitX=0.5;exitY=1;exitDx=0;exitDy=0;entryX=0.5;entryY=0;entryDx=0;entryDy=0;dashed=1;strokeWidth=2;" edge="1" parent="1" source="RCqLNb2kKSwG4njkKq9Q-18" target="RCqLNb2kKSwG4njkKq9Q-34">
          <mxGeometry relative="1" as="geometry" />
        </mxCell>
        <mxCell id="RCqLNb2kKSwG4njkKq9Q-56" style="edgeStyle=orthogonalEdgeStyle;orthogonalLoop=1;jettySize=auto;html=1;exitX=0.5;exitY=0;exitDx=0;exitDy=0;endArrow=none;endFill=0;strokeWidth=2;entryX=0.5;entryY=1;entryDx=0;entryDy=0;" edge="1" parent="1" source="RCqLNb2kKSwG4njkKq9Q-18" target="RCqLNb2kKSwG4njkKq9Q-6">
          <mxGeometry relative="1" as="geometry">
            <mxPoint x="1200.142857142857" y="360" as="targetPoint" />
          </mxGeometry>
        </mxCell>
        <mxCell id="RCqLNb2kKSwG4njkKq9Q-18" value="&lt;font style=&quot;font-size: 16px&quot;&gt;&lt;b&gt;MAPR&lt;/b&gt;&lt;/font&gt;" style="rounded=0;whiteSpace=wrap;html=1;strokeWidth=3;fillColor=#fff2cc;" vertex="1" parent="1">
          <mxGeometry x="1140" y="420" width="120" height="60" as="geometry" />
        </mxCell>
        <mxCell id="RCqLNb2kKSwG4njkKq9Q-25" value="&lt;font style=&quot;font-size: 16px&quot;&gt;&lt;b&gt;MSA&lt;/b&gt;&lt;/font&gt;" style="rounded=0;whiteSpace=wrap;html=1;strokeWidth=3;fillColor=#fff2cc;" vertex="1" parent="1">
          <mxGeometry x="540" y="680" width="120" height="60" as="geometry" />
        </mxCell>
        <mxCell id="RCqLNb2kKSwG4njkKq9Q-26" value="" style="ellipse;whiteSpace=wrap;html=1;aspect=fixed;strokeWidth=2;fillColor=#fff2cc;" vertex="1" parent="1">
          <mxGeometry x="585" y="550" width="30" height="30" as="geometry" />
        </mxCell>
        <mxCell id="RCqLNb2kKSwG4njkKq9Q-49" style="edgeStyle=orthogonalEdgeStyle;orthogonalLoop=1;jettySize=auto;html=1;exitX=0.5;exitY=1;exitDx=0;exitDy=0;entryX=0.5;entryY=0;entryDx=0;entryDy=0;endArrow=none;endFill=0;strokeWidth=2;" edge="1" parent="1" source="RCqLNb2kKSwG4njkKq9Q-27" target="RCqLNb2kKSwG4njkKq9Q-25">
          <mxGeometry relative="1" as="geometry" />
        </mxCell>
        <mxCell id="RCqLNb2kKSwG4njkKq9Q-27" value="&lt;font style=&quot;font-size: 15px&quot;&gt;&lt;b&gt;ISA&lt;/b&gt;&lt;/font&gt;" style="text;html=1;strokeColor=none;fillColor=none;align=center;verticalAlign=middle;whiteSpace=wrap;rounded=0;" vertex="1" parent="1">
          <mxGeometry x="580" y="590" width="40" height="20" as="geometry" />
        </mxCell>
        <mxCell id="RCqLNb2kKSwG4njkKq9Q-29" value="&lt;font style=&quot;font-size: 16px&quot;&gt;&lt;b&gt;MSP&lt;/b&gt;&lt;/font&gt;" style="rounded=0;whiteSpace=wrap;html=1;strokeWidth=3;fillColor=#fff2cc;" vertex="1" parent="1">
          <mxGeometry x="844" y="680" width="120" height="60" as="geometry" />
        </mxCell>
        <mxCell id="RCqLNb2kKSwG4njkKq9Q-30" value="" style="ellipse;whiteSpace=wrap;html=1;aspect=fixed;strokeWidth=2;fillColor=#fff2cc;" vertex="1" parent="1">
          <mxGeometry x="889" y="554" width="30" height="30" as="geometry" />
        </mxCell>
        <mxCell id="RCqLNb2kKSwG4njkKq9Q-47" style="edgeStyle=orthogonalEdgeStyle;orthogonalLoop=1;jettySize=auto;html=1;entryX=0.5;entryY=0;entryDx=0;entryDy=0;strokeWidth=2;endArrow=none;endFill=0;" edge="1" parent="1" source="RCqLNb2kKSwG4njkKq9Q-31" target="RCqLNb2kKSwG4njkKq9Q-29">
          <mxGeometry relative="1" as="geometry">
            <Array as="points">
              <mxPoint x="904" y="630" />
              <mxPoint x="904" y="630" />
            </Array>
          </mxGeometry>
        </mxCell>
        <mxCell id="RCqLNb2kKSwG4njkKq9Q-31" value="&lt;font style=&quot;font-size: 16px&quot;&gt;&lt;b&gt;ISP&lt;/b&gt;&lt;/font&gt;" style="text;html=1;strokeColor=none;fillColor=none;align=center;verticalAlign=middle;whiteSpace=wrap;rounded=0;" vertex="1" parent="1">
          <mxGeometry x="884" y="590" width="40" height="20" as="geometry" />
        </mxCell>
        <mxCell id="RCqLNb2kKSwG4njkKq9Q-33" value="&lt;font style=&quot;font-size: 16px&quot;&gt;&lt;b&gt;MSPR&lt;/b&gt;&lt;/font&gt;" style="rounded=0;whiteSpace=wrap;html=1;strokeWidth=3;fillColor=#fff2cc;" vertex="1" parent="1">
          <mxGeometry x="1140" y="680" width="120" height="60" as="geometry" />
        </mxCell>
        <mxCell id="RCqLNb2kKSwG4njkKq9Q-34" value="" style="ellipse;whiteSpace=wrap;html=1;aspect=fixed;strokeWidth=2;fillColor=#fff2cc;" vertex="1" parent="1">
          <mxGeometry x="1185" y="550" width="30" height="30" as="geometry" />
        </mxCell>
        <mxCell id="RCqLNb2kKSwG4njkKq9Q-48" style="edgeStyle=orthogonalEdgeStyle;orthogonalLoop=1;jettySize=auto;html=1;exitX=0.5;exitY=1;exitDx=0;exitDy=0;entryX=0.5;entryY=0;entryDx=0;entryDy=0;endArrow=none;endFill=0;strokeWidth=2;" edge="1" parent="1" source="RCqLNb2kKSwG4njkKq9Q-35" target="RCqLNb2kKSwG4njkKq9Q-33">
          <mxGeometry relative="1" as="geometry" />
        </mxCell>
        <mxCell id="RCqLNb2kKSwG4njkKq9Q-35" value="&lt;font style=&quot;font-size: 16px&quot;&gt;&lt;b&gt;ISPR&lt;/b&gt;&lt;/font&gt;" style="text;html=1;strokeColor=none;fillColor=none;align=center;verticalAlign=middle;whiteSpace=wrap;rounded=0;" vertex="1" parent="1">
          <mxGeometry x="1180" y="590" width="40" height="20" as="geometry" />
        </mxCell>
        <mxCell id="RCqLNb2kKSwG4njkKq9Q-41" value="" style="endArrow=none;dashed=1;html=1;dashPattern=1 3;strokeWidth=2;" edge="1" parent="1">
          <mxGeometry width="50" height="50" relative="1" as="geometry">
            <mxPoint x="440" y="830" as="sourcePoint" />
            <mxPoint x="440" y="270" as="targetPoint" />
          </mxGeometry>
        </mxCell>
        <mxCell id="RCqLNb2kKSwG4njkKq9Q-42" value="" style="endArrow=none;dashed=1;html=1;dashPattern=1 3;strokeWidth=2;" edge="1" parent="1">
          <mxGeometry width="50" height="50" relative="1" as="geometry">
            <mxPoint x="760" y="830" as="sourcePoint" />
            <mxPoint x="760" y="270" as="targetPoint" />
          </mxGeometry>
        </mxCell>
        <mxCell id="RCqLNb2kKSwG4njkKq9Q-43" value="" style="endArrow=none;dashed=1;html=1;dashPattern=1 3;strokeWidth=2;opacity=60;" edge="1" parent="1">
          <mxGeometry width="50" height="50" relative="1" as="geometry">
            <mxPoint x="1040" y="830" as="sourcePoint" />
            <mxPoint x="1040" y="270" as="targetPoint" />
          </mxGeometry>
        </mxCell>
        <mxCell id="RCqLNb2kKSwG4njkKq9Q-44" value="" style="endArrow=none;dashed=1;html=1;dashPattern=1 3;strokeWidth=2;" edge="1" parent="1">
          <mxGeometry width="50" height="50" relative="1" as="geometry">
            <mxPoint x="1360" y="830" as="sourcePoint" />
            <mxPoint x="1360" y="270" as="targetPoint" />
          </mxGeometry>
        </mxCell>
        <mxCell id="RCqLNb2kKSwG4njkKq9Q-46" value="" style="endArrow=none;dashed=1;html=1;strokeWidth=1;edgeStyle=orthogonalEdgeStyle;opacity=60;" edge="1" parent="1">
          <mxGeometry width="50" height="50" relative="1" as="geometry">
            <mxPoint x="360" y="520" as="sourcePoint" />
            <mxPoint x="1440" y="520" as="targetPoint" />
          </mxGeometry>
        </mxCell>
        <mxCell id="RCqLNb2kKSwG4njkKq9Q-61" value="" style="endArrow=classic;html=1;strokeWidth=2;entryX=0;entryY=0.5;entryDx=0;entryDy=0;exitX=1;exitY=1;exitDx=0;exitDy=0;dashed=1;" edge="1" parent="1" source="RCqLNb2kKSwG4njkKq9Q-17" target="RCqLNb2kKSwG4njkKq9Q-34">
          <mxGeometry width="50" height="50" relative="1" as="geometry">
            <mxPoint x="860" y="480" as="sourcePoint" />
            <mxPoint x="910" y="430" as="targetPoint" />
          </mxGeometry>
        </mxCell>
      </root>
    </mxGraphModel>
  </diagram>
</mxfile>
